<mxfile host="app.diagrams.net" agent="Mozilla/5.0 (Windows NT 10.0; Win64; x64) AppleWebKit/537.36 (KHTML, like Gecko) Chrome/135.0.0.0 Safari/537.36" version="26.2.12">
  <diagram name="Page-1" id="2YBvvXClWsGukQMizWep">
    <mxGraphModel dx="1680" dy="874" grid="1" gridSize="10" guides="1" tooltips="1" connect="1" arrows="1" fold="1" page="1" pageScale="1" pageWidth="850" pageHeight="1100" math="0" shadow="0">
      <root>
        <mxCell id="0" />
        <mxCell id="1" parent="0" />
        <mxCell id="KmQUkZNUxy0e-ph1zbqD-1" value="OfficerRequest&lt;div&gt;Controller&lt;/div&gt;" style="shape=umlLifeline;perimeter=lifelinePerimeter;whiteSpace=wrap;html=1;container=0;dropTarget=0;collapsible=0;recursiveResize=0;outlineConnect=0;portConstraint=eastwest;newEdgeStyle={&quot;edgeStyle&quot;:&quot;elbowEdgeStyle&quot;,&quot;elbow&quot;:&quot;vertical&quot;,&quot;curved&quot;:0,&quot;rounded&quot;:0};" vertex="1" parent="1">
          <mxGeometry x="440" y="95" width="100" height="555" as="geometry" />
        </mxCell>
        <mxCell id="KmQUkZNUxy0e-ph1zbqD-2" value="" style="html=1;points=[];perimeter=orthogonalPerimeter;outlineConnect=0;targetShapes=umlLifeline;portConstraint=eastwest;newEdgeStyle={&quot;edgeStyle&quot;:&quot;elbowEdgeStyle&quot;,&quot;elbow&quot;:&quot;vertical&quot;,&quot;curved&quot;:0,&quot;rounded&quot;:0};" vertex="1" parent="KmQUkZNUxy0e-ph1zbqD-1">
          <mxGeometry x="45" y="200" width="10" height="330" as="geometry" />
        </mxCell>
        <mxCell id="KmQUkZNUxy0e-ph1zbqD-3" value="Officer Registration of Project" style="shape=umlFrame;whiteSpace=wrap;html=1;pointerEvents=0;width=180;height=30;" vertex="1" parent="1">
          <mxGeometry x="40" y="50" width="1290" height="630" as="geometry" />
        </mxCell>
        <mxCell id="KmQUkZNUxy0e-ph1zbqD-4" value="" style="edgeStyle=orthogonalEdgeStyle;rounded=0;orthogonalLoop=1;jettySize=auto;html=1;" edge="1" parent="1" target="KmQUkZNUxy0e-ph1zbqD-6">
          <mxGeometry relative="1" as="geometry">
            <mxPoint x="125" y="170" as="sourcePoint" />
            <Array as="points">
              <mxPoint x="125" y="220" />
              <mxPoint x="125" y="220" />
            </Array>
          </mxGeometry>
        </mxCell>
        <mxCell id="KmQUkZNUxy0e-ph1zbqD-5" value="Officer" style="shape=umlActor;verticalLabelPosition=bottom;verticalAlign=top;html=1;outlineConnect=0;" vertex="1" parent="1">
          <mxGeometry x="110" y="90" width="30" height="60" as="geometry" />
        </mxCell>
        <mxCell id="KmQUkZNUxy0e-ph1zbqD-6" value="" style="html=1;points=[[0,0,0,0,5],[0,1,0,0,-5],[1,0,0,0,5],[1,1,0,0,-5]];perimeter=orthogonalPerimeter;outlineConnect=0;targetShapes=umlLifeline;portConstraint=eastwest;newEdgeStyle={&quot;curved&quot;:0,&quot;rounded&quot;:0};" vertex="1" parent="1">
          <mxGeometry x="120" y="190" width="10" height="430" as="geometry" />
        </mxCell>
        <mxCell id="KmQUkZNUxy0e-ph1zbqD-7" value="OfficerRegistration" style="shape=umlLifeline;perimeter=lifelinePerimeter;whiteSpace=wrap;html=1;container=0;dropTarget=0;collapsible=0;recursiveResize=0;outlineConnect=0;portConstraint=eastwest;newEdgeStyle={&quot;edgeStyle&quot;:&quot;elbowEdgeStyle&quot;,&quot;elbow&quot;:&quot;vertical&quot;,&quot;curved&quot;:0,&quot;rounded&quot;:0};" vertex="1" parent="1">
          <mxGeometry x="760" y="95" width="140" height="555" as="geometry" />
        </mxCell>
        <mxCell id="KmQUkZNUxy0e-ph1zbqD-8" value="" style="html=1;points=[];perimeter=orthogonalPerimeter;outlineConnect=0;targetShapes=umlLifeline;portConstraint=eastwest;newEdgeStyle={&quot;edgeStyle&quot;:&quot;elbowEdgeStyle&quot;,&quot;elbow&quot;:&quot;vertical&quot;,&quot;curved&quot;:0,&quot;rounded&quot;:0};" vertex="1" parent="KmQUkZNUxy0e-ph1zbqD-7">
          <mxGeometry x="65" y="220" width="10" height="220" as="geometry" />
        </mxCell>
        <mxCell id="KmQUkZNUxy0e-ph1zbqD-9" value="IDController" style="shape=umlLifeline;perimeter=lifelinePerimeter;whiteSpace=wrap;html=1;container=0;dropTarget=0;collapsible=0;recursiveResize=0;outlineConnect=0;portConstraint=eastwest;newEdgeStyle={&quot;edgeStyle&quot;:&quot;elbowEdgeStyle&quot;,&quot;elbow&quot;:&quot;vertical&quot;,&quot;curved&quot;:0,&quot;rounded&quot;:0};" vertex="1" parent="1">
          <mxGeometry x="570" y="95" width="160" height="555" as="geometry" />
        </mxCell>
        <mxCell id="KmQUkZNUxy0e-ph1zbqD-10" value="" style="html=1;points=[];perimeter=orthogonalPerimeter;outlineConnect=0;targetShapes=umlLifeline;portConstraint=eastwest;newEdgeStyle={&quot;edgeStyle&quot;:&quot;elbowEdgeStyle&quot;,&quot;elbow&quot;:&quot;vertical&quot;,&quot;curved&quot;:0,&quot;rounded&quot;:0};" vertex="1" parent="KmQUkZNUxy0e-ph1zbqD-9">
          <mxGeometry x="75" y="200" width="10" height="330" as="geometry" />
        </mxCell>
        <mxCell id="KmQUkZNUxy0e-ph1zbqD-13" value="registerProject(projectID)" style="html=1;verticalAlign=bottom;endArrow=block;edgeStyle=elbowEdgeStyle;elbow=vertical;curved=0;rounded=0;" edge="1" parent="1">
          <mxGeometry x="0.001" relative="1" as="geometry">
            <mxPoint x="310" y="310" as="sourcePoint" />
            <Array as="points">
              <mxPoint x="455" y="310" />
            </Array>
            <mxPoint x="485" y="310" as="targetPoint" />
            <mxPoint as="offset" />
          </mxGeometry>
        </mxCell>
        <mxCell id="KmQUkZNUxy0e-ph1zbqD-14" value="RequestList" style="shape=umlLifeline;perimeter=lifelinePerimeter;whiteSpace=wrap;html=1;container=0;dropTarget=0;collapsible=0;recursiveResize=0;outlineConnect=0;portConstraint=eastwest;newEdgeStyle={&quot;edgeStyle&quot;:&quot;elbowEdgeStyle&quot;,&quot;elbow&quot;:&quot;vertical&quot;,&quot;curved&quot;:0,&quot;rounded&quot;:0};" vertex="1" parent="1">
          <mxGeometry x="940" y="95" width="160" height="555" as="geometry" />
        </mxCell>
        <mxCell id="KmQUkZNUxy0e-ph1zbqD-15" value="" style="html=1;points=[];perimeter=orthogonalPerimeter;outlineConnect=0;targetShapes=umlLifeline;portConstraint=eastwest;newEdgeStyle={&quot;edgeStyle&quot;:&quot;elbowEdgeStyle&quot;,&quot;elbow&quot;:&quot;vertical&quot;,&quot;curved&quot;:0,&quot;rounded&quot;:0};" vertex="1" parent="KmQUkZNUxy0e-ph1zbqD-14">
          <mxGeometry x="75" y="290" width="10" height="240" as="geometry" />
        </mxCell>
        <mxCell id="KmQUkZNUxy0e-ph1zbqD-16" value="enter projectID" style="html=1;verticalAlign=bottom;endArrow=block;edgeStyle=elbowEdgeStyle;elbow=vertical;curved=0;rounded=0;" edge="1" parent="1">
          <mxGeometry relative="1" as="geometry">
            <mxPoint x="130" y="280" as="sourcePoint" />
            <Array as="points">
              <mxPoint x="195" y="280" />
            </Array>
            <mxPoint x="305" y="280" as="targetPoint" />
            <mxPoint as="offset" />
          </mxGeometry>
        </mxCell>
        <mxCell id="KmQUkZNUxy0e-ph1zbqD-17" value="OfficerPage" style="shape=umlLifeline;perimeter=lifelinePerimeter;whiteSpace=wrap;html=1;container=0;dropTarget=0;collapsible=0;recursiveResize=0;outlineConnect=0;portConstraint=eastwest;newEdgeStyle={&quot;edgeStyle&quot;:&quot;elbowEdgeStyle&quot;,&quot;elbow&quot;:&quot;vertical&quot;,&quot;curved&quot;:0,&quot;rounded&quot;:0};" vertex="1" parent="1">
          <mxGeometry x="240" y="95" width="140" height="555" as="geometry" />
        </mxCell>
        <mxCell id="KmQUkZNUxy0e-ph1zbqD-18" value="" style="html=1;points=[];perimeter=orthogonalPerimeter;outlineConnect=0;targetShapes=umlLifeline;portConstraint=eastwest;newEdgeStyle={&quot;edgeStyle&quot;:&quot;elbowEdgeStyle&quot;,&quot;elbow&quot;:&quot;vertical&quot;,&quot;curved&quot;:0,&quot;rounded&quot;:0};" vertex="1" parent="KmQUkZNUxy0e-ph1zbqD-17">
          <mxGeometry x="65" y="80" width="10" height="450" as="geometry" />
        </mxCell>
        <mxCell id="KmQUkZNUxy0e-ph1zbqD-19" value="selects register" style="html=1;verticalAlign=bottom;endArrow=block;edgeStyle=elbowEdgeStyle;elbow=vertical;curved=0;rounded=0;" edge="1" parent="1">
          <mxGeometry relative="1" as="geometry">
            <mxPoint x="130" y="220" as="sourcePoint" />
            <Array as="points">
              <mxPoint x="185" y="220" />
            </Array>
            <mxPoint x="305" y="220" as="targetPoint" />
            <mxPoint as="offset" />
          </mxGeometry>
        </mxCell>
        <mxCell id="KmQUkZNUxy0e-ph1zbqD-20" value="add(request)" style="html=1;verticalAlign=bottom;endArrow=block;edgeStyle=elbowEdgeStyle;elbow=vertical;curved=0;rounded=0;" edge="1" parent="1">
          <mxGeometry x="0.0058" relative="1" as="geometry">
            <mxPoint x="495" y="400" as="sourcePoint" />
            <Array as="points">
              <mxPoint x="790" y="400" />
              <mxPoint x="970" y="580" />
            </Array>
            <mxPoint x="1015" y="400" as="targetPoint" />
            <mxPoint as="offset" />
          </mxGeometry>
        </mxCell>
        <mxCell id="KmQUkZNUxy0e-ph1zbqD-23" value="prompts for ProjectID" style="html=1;verticalAlign=bottom;endArrow=block;edgeStyle=elbowEdgeStyle;elbow=vertical;curved=0;rounded=0;" edge="1" parent="1">
          <mxGeometry x="0.001" relative="1" as="geometry">
            <mxPoint x="305" y="250" as="sourcePoint" />
            <Array as="points">
              <mxPoint x="230" y="250" />
            </Array>
            <mxPoint x="130" y="250" as="targetPoint" />
            <mxPoint as="offset" />
          </mxGeometry>
        </mxCell>
        <mxCell id="KmQUkZNUxy0e-ph1zbqD-26" value="" style="html=1;verticalAlign=bottom;labelBackgroundColor=none;endArrow=open;endFill=0;dashed=1;rounded=0;" edge="1" parent="1" target="KmQUkZNUxy0e-ph1zbqD-2">
          <mxGeometry width="160" relative="1" as="geometry">
            <mxPoint x="1015" y="550" as="sourcePoint" />
            <mxPoint x="500" y="550" as="targetPoint" />
          </mxGeometry>
        </mxCell>
        <mxCell id="KmQUkZNUxy0e-ph1zbqD-27" value="success" style="edgeLabel;html=1;align=center;verticalAlign=middle;resizable=0;points=[];" vertex="1" connectable="0" parent="KmQUkZNUxy0e-ph1zbqD-26">
          <mxGeometry x="0.1177" y="1" relative="1" as="geometry">
            <mxPoint as="offset" />
          </mxGeometry>
        </mxCell>
        <mxCell id="KmQUkZNUxy0e-ph1zbqD-28" value="" style="html=1;verticalAlign=bottom;labelBackgroundColor=none;endArrow=open;endFill=0;dashed=1;rounded=0;" edge="1" parent="1">
          <mxGeometry width="160" relative="1" as="geometry">
            <mxPoint x="485" y="570" as="sourcePoint" />
            <mxPoint x="315" y="570" as="targetPoint" />
          </mxGeometry>
        </mxCell>
        <mxCell id="KmQUkZNUxy0e-ph1zbqD-29" value="return confirmation" style="edgeLabel;html=1;align=center;verticalAlign=middle;resizable=0;points=[];" vertex="1" connectable="0" parent="KmQUkZNUxy0e-ph1zbqD-28">
          <mxGeometry x="0.1177" y="1" relative="1" as="geometry">
            <mxPoint as="offset" />
          </mxGeometry>
        </mxCell>
        <mxCell id="KmQUkZNUxy0e-ph1zbqD-30" value="" style="html=1;verticalAlign=bottom;labelBackgroundColor=none;endArrow=open;endFill=0;dashed=1;rounded=0;" edge="1" parent="1">
          <mxGeometry width="160" relative="1" as="geometry">
            <mxPoint x="305" y="590" as="sourcePoint" />
            <mxPoint x="130" y="590" as="targetPoint" />
          </mxGeometry>
        </mxCell>
        <mxCell id="KmQUkZNUxy0e-ph1zbqD-31" value="show confirmation" style="edgeLabel;html=1;align=center;verticalAlign=middle;resizable=0;points=[];" vertex="1" connectable="0" parent="KmQUkZNUxy0e-ph1zbqD-30">
          <mxGeometry x="0.1177" y="1" relative="1" as="geometry">
            <mxPoint as="offset" />
          </mxGeometry>
        </mxCell>
        <mxCell id="KmQUkZNUxy0e-ph1zbqD-32" value="ManagerRequestController" style="shape=umlLifeline;perimeter=lifelinePerimeter;whiteSpace=wrap;html=1;container=0;dropTarget=0;collapsible=0;recursiveResize=0;outlineConnect=0;portConstraint=eastwest;newEdgeStyle={&quot;edgeStyle&quot;:&quot;elbowEdgeStyle&quot;,&quot;elbow&quot;:&quot;vertical&quot;,&quot;curved&quot;:0,&quot;rounded&quot;:0};" vertex="1" parent="1">
          <mxGeometry x="1150" y="95" width="160" height="560" as="geometry" />
        </mxCell>
        <mxCell id="KmQUkZNUxy0e-ph1zbqD-33" value="" style="html=1;points=[];perimeter=orthogonalPerimeter;outlineConnect=0;targetShapes=umlLifeline;portConstraint=eastwest;newEdgeStyle={&quot;edgeStyle&quot;:&quot;elbowEdgeStyle&quot;,&quot;elbow&quot;:&quot;vertical&quot;,&quot;curved&quot;:0,&quot;rounded&quot;:0};" vertex="1" parent="KmQUkZNUxy0e-ph1zbqD-32">
          <mxGeometry x="75" y="380" width="10" height="160" as="geometry" />
        </mxCell>
        <mxCell id="KmQUkZNUxy0e-ph1zbqD-34" value="viewRequest()" style="html=1;verticalAlign=bottom;endArrow=block;edgeStyle=elbowEdgeStyle;elbow=vertical;curved=0;rounded=0;" edge="1" parent="1" source="KmQUkZNUxy0e-ph1zbqD-33" target="KmQUkZNUxy0e-ph1zbqD-15">
          <mxGeometry x="0.0058" relative="1" as="geometry">
            <mxPoint x="1245" y="482.5" as="sourcePoint" />
            <Array as="points">
              <mxPoint x="1130" y="482" />
            </Array>
            <mxPoint x="1340" y="482.4999999999998" as="targetPoint" />
            <mxPoint as="offset" />
          </mxGeometry>
        </mxCell>
        <mxCell id="KmQUkZNUxy0e-ph1zbqD-35" value="changeRequestStatus()" style="html=1;verticalAlign=bottom;endArrow=block;edgeStyle=elbowEdgeStyle;elbow=vertical;curved=0;rounded=0;" edge="1" parent="1" target="KmQUkZNUxy0e-ph1zbqD-15">
          <mxGeometry x="0.0058" relative="1" as="geometry">
            <mxPoint x="1225" y="520" as="sourcePoint" />
            <Array as="points">
              <mxPoint x="1130" y="520" />
            </Array>
            <mxPoint x="1030" y="520" as="targetPoint" />
            <mxPoint as="offset" />
          </mxGeometry>
        </mxCell>
        <mxCell id="KmQUkZNUxy0e-ph1zbqD-36" value="newRequestID()" style="html=1;verticalAlign=bottom;endArrow=block;edgeStyle=elbowEdgeStyle;elbow=vertical;curved=0;rounded=0;" edge="1" parent="1">
          <mxGeometry x="0.0058" relative="1" as="geometry">
            <mxPoint x="495" y="320" as="sourcePoint" />
            <Array as="points">
              <mxPoint x="570" y="320" />
              <mxPoint x="980" y="500" />
            </Array>
            <mxPoint x="645" y="320" as="targetPoint" />
            <mxPoint as="offset" />
          </mxGeometry>
        </mxCell>
        <mxCell id="KmQUkZNUxy0e-ph1zbqD-37" value="newOfficerRegistration" style="html=1;verticalAlign=bottom;endArrow=block;edgeStyle=elbowEdgeStyle;elbow=vertical;curved=0;rounded=0;" edge="1" parent="1" source="KmQUkZNUxy0e-ph1zbqD-2" target="KmQUkZNUxy0e-ph1zbqD-8">
          <mxGeometry x="0.0058" relative="1" as="geometry">
            <mxPoint x="500" y="364.76" as="sourcePoint" />
            <Array as="points">
              <mxPoint x="575" y="364.76" />
              <mxPoint x="985" y="544.76" />
            </Array>
            <mxPoint x="650" y="364.76" as="targetPoint" />
            <mxPoint as="offset" />
          </mxGeometry>
        </mxCell>
      </root>
    </mxGraphModel>
  </diagram>
</mxfile>
